<?xml version="1.0" encoding="UTF-8"?>
<svg id="Layer_1" data-name="Layer 1" xmlns="http://www.w3.org/2000/svg" viewBox="0 0 841.89 464.3">
  <defs>
    <style>
      .cls-1 {
        fill: #fff;
      }

      .cls-2 {
        fill: #024f46;
      }
    </style>
  </defs>
  <g>
    <path class="cls-1" d="M315.08,218.75h-13.85v-8.44h37.08v8.44h-13.78v38.14h-9.45v-38.14Z"/>
    <path class="cls-1" d="M339.19,243.92v-22.61h9.32v20.93c0,5,3.33,7.16,7.19,7.16s7.19-2.16,7.19-7.16v-20.93h9.25v22.61c0,7.56-5.92,13.9-16.44,13.9s-16.51-6.34-16.51-13.9Z"/>
    <path class="cls-1" d="M385.06,206.19c3.19,0,5.66,2.56,5.66,5.67s-2.46,5.67-5.66,5.67-5.53-2.43-5.53-5.67,2.46-5.67,5.53-5.67ZM380.4,221.31h9.32v35.57h-9.32v-35.57Z"/>
    <path class="cls-1" d="M398.57,221.31h8.79v4.72h.13c2.13-3.04,5.39-5.53,10.98-5.53,8.92,0,13.25,5.8,13.25,14.92v21.47h-9.32v-18.9c0-5.13-1.6-8.78-6.79-8.78s-7.72,3.65-7.72,8.84v18.83h-9.32v-35.57Z"/>
    <path class="cls-1" d="M437.65,239.06c0-10.66,7.32-18.7,17.11-18.7,5.19,0,9.19,2.36,11.18,5.33h.07v-4.39h9.32v35.57h-8.79v-4.86h-.13c-1.86,3.17-6.39,5.8-11.78,5.8-9.45,0-16.98-7.9-16.98-18.77ZM456.76,249.46c5.59,0,9.45-4.59,9.45-10.33s-3.86-10.33-9.45-10.33-9.45,4.46-9.45,10.33,3.86,10.33,9.45,10.33Z"/>
    <path class="cls-1" d="M486.65,229.07h-5.59v-7.76h5.59v-6.21c0-6.68,4.26-9.25,9.72-9.25,2.8,0,5.06.27,6.99.41v8.1c-1.86-.2-3.2-.34-4.13-.34-2.06,0-3.26.54-3.26,3.1v4.19h7.39v7.76h-7.39v27.81h-9.32v-27.81Z"/>
    <path class="cls-1" d="M505.1,251.49l4.73-5.67c2.13,2.63,5.39,4.66,9.52,4.66,3.39,0,5.53-1.35,5.53-3.85,0-3.04-3.33-3.64-7.26-4.79-5.39-1.62-10.59-4.32-10.59-10.6,0-6.75,6.06-10.87,14.25-10.87,6.32,0,10.32,2.43,12.38,4.66l-4.73,5.8c-1.6-1.82-4.26-3.31-7.52-3.31s-4.93,1.35-4.93,3.1c0,2.63,3.33,3.24,6.46,4.19,5.72,1.75,11.38,4.32,11.38,11.14,0,7.16-6.12,11.75-14.85,11.75-6.92,0-11.85-2.83-14.38-6.21Z"/>
    <path class="cls-1" d="M540.98,206.26h9.25v50.63h-9.25v-50.63Z"/>
    <path class="cls-1" d="M558.69,243.92v-22.61h9.32v20.93c0,5,3.33,7.16,7.19,7.16s7.19-2.16,7.19-7.16v-20.93h9.25v22.61c0,7.56-5.92,13.9-16.44,13.9s-16.51-6.34-16.51-13.9Z"/>
    <path class="cls-1" d="M604.56,206.19c3.19,0,5.66,2.56,5.66,5.67s-2.46,5.67-5.66,5.67-5.53-2.43-5.53-5.67,2.46-5.67,5.53-5.67ZM599.9,221.31h9.32v35.57h-9.32v-35.57Z"/>
    <path class="cls-1" d="M620.74,248.51v-19.24h-5.59v-7.96h5.59v-10.33h9.32v10.33h7.72v7.96h-7.72v17.69c0,2.23,1.53,2.77,3.6,2.77,1.6,0,3.19-.34,4.39-.61v7.76c-1.53.34-4.53.68-6.79.68-5.59,0-10.52-2.03-10.52-9.05Z"/>
    <path class="cls-1" d="M642.18,239.13c0-10.8,7.72-18.77,18.24-18.77,9.45,0,18.18,6.35,18.18,21.13v.47h-26.76c1,5.47,4.46,7.76,8.79,7.76,3.2,0,6.26-1.28,8.19-3.91l6.99,4.79c-3,3.71-7.46,7.22-15.18,7.22-10.59,0-18.44-7.9-18.44-18.7ZM668.54,235.55c-.67-4.45-3.66-7.29-8.19-7.29-3.93,0-7.59,2.23-8.52,7.29h16.71Z"/>
    <path class="cls-1" d="M684.99,221.31h8.79v6.07h.13c1.66-4.45,5.59-7.02,9.99-7.02,1.2,0,1.8.2,2.06.27v10.19c-.86-.34-1.93-.47-3-.47-5.46,0-8.65,3.98-8.65,9.45v17.08h-9.32v-35.57Z"/>
  </g>
  <path class="cls-1" d="M211.09,199.28v-3.99l-3.45,2.02-44.06-25.07c-2.14-1.22-4.81.33-4.81,2.8v50.96l-22.84,13.41v52.43c0,3.22,3.49,5.22,6.27,3.59l65.5-38.47,42.18,23.99c2.77,1.58,6.22-.43,6.22-3.62v-52.48l-44.99-25.6ZM166.11,182.13l34.23,19.47-34.23,20.1v-39.57ZM143.27,286.3v-42.68l60.48-35.51v13.45l-6.73,3.95c-2.2,1.29-3.55,3.65-3.55,6.2,0,1.95,2.11,3.16,3.79,2.17l6.49-3.81v20.71l-60.48,35.52ZM248.75,271.89l-37.66-21.42v-42.74l37.66,21.42v42.74Z"/>
  <path class="cls-2" d="M256.09,227.94v-4.85c0-1.5-.77-2.88-2.07-3.63l-89.03-50.64c-2.77-1.58-6.22.43-6.22,3.62v9.73l34.24,19.48-55.03,32.31c-1.27.75-2.06,2.12-2.05,3.6v4.88l7.33,5.44,64.48-37.85,41.02,23.33,7.34-5.42Z"/>
</svg>